Coordinates
version=1
nRows=13
nColumns=34
inDegrees=yes

Units are S.I. units (second, meters, Newtons, ...)
If the header above contains a line with 'inDegrees', this indicates whether rotational values are in degrees (yes) or radians (no).

endheader
time	pelvis_tilt	pelvis_list	pelvis_rotation	pelvis_tx	pelvis_ty	pelvis_tz	hip_flexion_r	hip_adduction_r	hip_rotation_r	knee_angle_r	ankle_angle_r	subtalar_angle_r	mtp_angle_r	hip_flexion_l	hip_adduction_l	hip_rotation_l	knee_angle_l	ankle_angle_l	subtalar_angle_l	mtp_angle_l	lumbar_extension	lumbar_bending	lumbar_rotation	arm_flex_r	arm_add_r	arm_rot_r	elbow_flex_r	pro_sup_r	arm_flex_l	arm_add_l	arm_rot_l	elbow_flex_l	pro_sup_l
      5.66666670	     10.26570475	     -3.48455046	    -36.64067584	      1.15361829	      1.03732922	      3.87058913	     -2.07234102	     11.42178795	      1.67424077	      8.34107429	      3.76373302	    -19.40837713	      0.00000000	    -12.82455869	      6.75609773	     20.78602186	      8.84040385	     14.45495828	    -12.13241009	      0.00000000	     -7.00802244	    -10.14634054	     48.20078428	     15.45973550	     -0.07351986	     21.32279914	     24.64152239	    119.74817918	     -5.79283122	     12.67904758	     62.80978479	     23.54422829	    107.82813892
      5.68333330	     10.53143847	     -3.33699742	    -36.97804137	      1.15374223	      1.03759741	      3.87040348	     -2.37890627	     11.12697812	      2.32926569	      8.04375947	      3.42224672	    -20.17459343	      0.00000000	    -11.70134558	      7.58852166	     17.80195830	     11.20371416	     14.62414356	    -11.95106384	      0.00000000	     -7.14044548	    -10.45492517	     48.19497185	     16.15784453	      0.01878836	     21.13666855	     23.88401305	    119.74817918	     -5.96260817	     13.43153081	     63.84138898	     21.72888506	    107.64461747
      5.70000000	     10.53868151	     -2.95462362	    -37.12885292	      1.15300532	      1.03754025	      3.86995331	     -2.20918170	     10.85348438	      3.45920842	      7.83000102	      2.68601100	    -21.77457070	      0.00000000	     -9.63306725	      8.23511444	     14.43264153	     14.64080915	     15.55862458	     -9.83235996	      0.00000000	     -6.99827214	    -10.89681164	     48.09386612	     16.81274821	      0.10906186	     20.97903461	     23.63470822	    119.74817918	     -6.09551674	     13.75351892	     65.38400948	     20.61820107	    107.22808578
      5.71666670	     10.85127174	     -2.89368903	    -37.11597596	      1.15321037	      1.03845208	      3.87023999	     -2.76754375	     10.62394717	      3.70014814	      7.21467844	      2.19774852	    -22.14620159	      0.00000000	     -8.56734068	      8.56866449	     12.18595841	     17.74590286	     15.80398616	     -8.09373168	      0.00000000	     -7.23591809	    -11.19499514	     47.91968731	     17.51456496	      0.36244706	     20.63838254	     23.20427266	    119.74817918	     -6.42063515	     14.27102806	     65.84602849	     18.71650745	    106.73604063
      5.73333330	     11.01385133	     -2.76504177	    -37.46390756	      1.15258395	      1.03897071	      3.87098517	     -3.00834150	     10.39117782	      4.18158606	      6.93296416	      1.81830909	    -22.18467595	      0.00000000	     -7.09286082	      8.52769210	      8.86789747	     21.36970644	     17.34099930	     -2.79338525	      0.00000000	     -7.20900487	    -11.51956612	     47.66748209	     18.25181560	      0.77235434	     20.46827225	     22.98607760	    119.74817918	     -6.99154931	     14.79012467	     66.33178408	     17.25680863	    106.18799696
      5.75000000	     11.09105788	     -2.56268501	    -38.01784933	      1.15282150	      1.03962831	      3.87114568	     -3.24836799	     10.09410849	      4.88591247	      6.45900207	      1.69944972	    -22.16298116	      0.00000000	     -5.80348343	      8.24057489	      5.09510728	     24.16869145	     17.54006637	      1.73588089	      0.00000000	     -6.95665432	    -11.62179119	     47.82162827	     18.73761701	      1.04381191	     20.29842124	     22.70590645	    119.74817918	     -7.91266097	     15.42311482	     66.71619650	     15.54002168	    105.71684254
      5.76666670	     11.33320403	     -2.10166964	    -38.17640508	      1.15384508	      1.04093372	      3.87038074	     -3.64305050	      9.36217916	      5.12887350	      5.57452569	      1.28206558	    -21.73584887	      0.00000000	     -4.84756331	      8.60016403	      3.25415911	     26.12212178	     15.75588014	      2.67500621	      0.00000000	     -6.77202525	    -11.95248720	     47.60775586	     19.01749068	      1.19548219	     20.19170872	     22.82665460	    119.74817918	     -8.95407675	     15.95988525	     66.77161169	     14.01820484	    105.55437703
      5.78333330	     11.28094820	     -2.04130770	    -38.71363691	      1.15477810	      1.04173803	      3.86933989	     -3.76613596	      9.17191920	      5.64705922	      5.24378355	      1.20731685	    -21.68577745	      0.00000000	     -3.60561398	      8.25166139	      0.68192598	     28.27262484	     13.79776821	      4.79855528	      0.00000000	     -6.39821413	    -11.70855816	     48.01583492	     19.29577620	      1.13184454	     19.86194187	     22.66625148	    119.74817918	    -10.27326888	     16.84465044	     66.50595068	     12.53850835	    105.11266052
      5.80000000	     11.27027952	     -2.03077280	    -38.79160001	      1.15635397	      1.04284963	      3.86803690	     -4.15389949	      8.97645063	      5.64373147	      4.51208641	      0.90561661	    -21.41467082	      0.00000000	     -2.81728993	      8.09917223	     -0.43854870	     29.57000370	     10.47648254	      4.97746191	      0.00000000	     -6.24182641	    -11.58778188	     47.75985303	     19.58236036	      1.07938299	     19.83808439	     22.83835552	    119.74817918	    -11.53405324	     17.33045100	     66.53707224	     11.80497343	    105.05709445
      5.81666670	     11.25797863	     -1.92299845	    -39.02131420	      1.15786047	      1.04393845	      3.86634537	     -4.47591691	      8.65940272	      5.77421902	      3.73350845	      0.44329051	    -20.92874843	      0.00000000	     -1.96125691	      7.99216941	     -1.99829790	     30.58783068	      6.89655610	      4.50097815	      0.00000000	     -5.95893245	    -11.38999494	     47.50277561	     19.77933199	      1.03118906	     19.89745873	     23.21145711	    119.74817918	    -12.81296541	     18.14774415	     66.34702641	     10.50912020	    104.92086785
      5.83333330	     11.17733426	     -2.25696502	    -39.71208290	      1.15927351	      1.04465103	      3.86506135	     -4.90386389	      8.71117397	      6.28616621	      3.31821205	      0.42397378	    -20.37069343	      0.00000000	     -1.55053852	      7.74315523	     -2.88413553	     31.20691637	      3.75809232	      2.76829864	      0.00000000	     -5.66086158	    -10.76828953	     47.87064909	     19.81100594	      0.99541916	     19.81537302	     23.71871614	    119.74817918	    -14.48336199	     19.11840378	     65.56515098	      9.43182860	    104.63206197
      5.85000000	     11.19245508	     -2.71299670	    -40.32763925	      1.16003734	      1.04493985	      3.86342969	     -5.32950471	      8.83495762	      6.69252093	      3.16095328	      0.75560371	    -19.70011729	      0.00000000	     -1.52801173	      7.51643831	     -3.14405594	     31.26218683	      1.56918305	      0.53576829	      0.00000000	     -5.78874603	    -10.38054015	     48.31275140	     20.05028937	      0.80232232	     18.93043064	     24.37800968	    119.74817918	    -15.98496936	     19.84125057	     63.33587212	      8.98056241	    104.13479366
      5.86666670	     11.01135478	     -3.30811071	    -41.05790446	      1.16004468	      1.04487796	      3.86252081	     -5.75191306	      9.22987830	      7.06204714	      2.88485667	      0.83557669	    -18.84701519	      0.00000000	     -1.62344666	      6.96319070	     -3.52699489	     31.03578011	      0.51326561	     -1.11300320	      0.00000000	     -5.82197798	     -9.88202337	     48.78435518	     20.28974570	      0.79446203	     17.81844180	     25.11476408	    119.74817918	    -17.45340719	     20.50729587	     60.46308278	      8.31531817	    103.76927468
